<svg xmlns="http://www.w3.org/2000/svg" version="1.1" xmlns:xlink="http://www.w3.org/1999/xlink" xmlns:svgjs="http://svgjs.dev/svgjs" width="1000" height="623" viewBox="0 0 1000 623"><g transform="matrix(1,0,0,1,-0.6060606060606233,0.2522267206477409)"><svg viewBox="0 0 396 247" data-background-color="#ffffff" preserveAspectRatio="xMidYMid meet" height="623" width="1000" xmlns="http://www.w3.org/2000/svg" xmlns:xlink="http://www.w3.org/1999/xlink"><g id="tight-bounds" transform="matrix(1,0,0,1,0.2400000000000091,-0.09999999999999432)"><svg viewBox="0 0 395.52 247.2" height="247.2" width="395.52"><g><svg></svg></g><g><svg viewBox="0 0 395.52 247.2" height="247.2" width="395.52"><g transform="matrix(1,0,0,1,75.54432,60.24552705913946)"><svg viewBox="0 0 244.43135999999998 126.70894588172106" height="126.70894588172106" width="244.43135999999998"><g><svg viewBox="0 0 244.43135999999998 126.70894588172106" height="126.70894588172106" width="244.43135999999998"><g><svg viewBox="0 0 244.43135999999998 126.70894588172106" height="126.70894588172106" width="244.43135999999998"><g><svg viewBox="0 0 244.43135999999998 126.70894588172106" height="126.70894588172106" width="244.43135999999998"><g id="textblocktransform"><svg viewBox="0 0 244.43135999999998 126.70894588172106" height="126.70894588172106" width="244.43135999999998" id="textblock"><g><svg viewBox="0 0 244.43135999999998 96.44162964648515" height="96.44162964648515" width="244.43135999999998"><g transform="matrix(1,0,0,1,0,0)"><svg width="244.43135999999998" viewBox="0.4000000059604645 -29.5 123.04000091552734 48.54999923706055" height="96.44162964648515" data-palette-color="#111111"><path d="M9.8-20.4L9.8-20.4Q9.8-19.6 10.23-19 10.65-18.4 11-18.15L11-18.15Q11.7-17.7 12.8-17.15L12.8-17.15Q13.4-16.7 13.05-16.6L13.05-16.6Q12.9-16.6 12.7-16.65L12.7-16.65Q11.5-16.9 10.15-18.1 8.8-19.3 8.75-20.85L8.75-20.85Q8.6-21.4 8.6-21.8L8.6-21.8Q8.6-23.95 10.4-25.55L10.4-25.55Q13.75-28.4 21.05-28.4L21.05-28.4Q21.05-28.6 21.2-28.9L21.2-28.9Q21.3-29.5 22.75-29.5L22.75-29.5Q24-29.5 23.95-28.9L23.95-28.9Q23.75-28.5 23.7-28.25L23.7-28.25Q26.9-28.05 29.05-26.95L29.05-26.95Q29.75-26.6 30.08-26.1 30.4-25.6 30.4-25.4L30.4-25.4Q30.4-24.95 28.58-25.58 26.75-26.2 23-26.2L23-26.2Q22.75-25.15 21.28-20.9 19.8-16.65 19.4-15.63 19-14.6 18.3-12.78 17.6-10.95 17.05-9.8 16.5-8.65 15.8-7.2L15.8-7.2Q14.6-4.75 12.95-2.6L12.95-2.6Q11.7-1.15 11.05-0.65L11.05-0.65Q11.9-0.65 14.35-0.65 16.8-0.65 18.65-0.78 20.5-0.9 20.68-0.75 20.85-0.6 20.7-0.4L20.7-0.4Q20.4 0.1 19.9 0.38 19.4 0.65 12.55 0.85 5.7 1.05 4 1.05 2.3 1.05 1.55 1.05L1.55 1.05Q0.4 1 0.4 0.15L0.4 0.15Q0.4-0.3 0.7-1.1L0.7-1.1Q1.05-1.9 2.08-2.13 3.1-2.35 3.9-1.7L3.9-1.7Q5.25-0.6 6.55-0.6 7.85-0.6 9.22-1.1 10.6-1.6 12-3.4L12-3.4Q16.05-8.8 20.5-26.15L20.5-26.15Q15.9-25.75 12.85-24.28 9.8-22.8 9.8-20.4ZM37.5-13.5L37.5-13.5Q38.4-13.5 39.65-12.58 40.9-11.65 41.05-10.75L41.05-10.75Q41.1-10.4 41.1-10.1L41.1-10.1Q41.1-7.85 38.9-5.28 36.7-2.7 33.95-0.9L33.95-0.9Q29.7 2 25.5 2L25.5 2Q23.8 2 22.8 1.55L22.8 1.55Q22 1.15 24.8 1.15L24.8 1.15Q27.85 1.15 32.7-2.45L32.7-2.45Q37.4-5.75 38.4-10.35L38.4-10.35Q38.55-11.05 38.37-11.78 38.2-12.5 37.5-12.5L37.5-12.5Q35.25-12.5 31.6-9.35L31.6-9.35Q30.05-8.05 28.42-5.85 26.8-3.65 26.8-2.25L26.8-2.25Q26.8-2.05 26.87-1.83 26.95-1.6 26.7-1.1L26.7-1.1Q26.05 0.2 24.85-1.25L24.85-1.25Q24.55-2 24.55-2.8L24.55-2.8Q24.55-5.1 25.25-7.65L25.25-7.65Q25.05-7.45 24.37-6.43 23.7-5.4 22.8-4.4L22.8-4.4Q22.35-3.9 22.1-4.4L22.1-4.4Q22.05-4.5 22.05-4.67 22.05-4.85 22.25-5.1L22.25-5.1Q26.15-9.95 26.8-11.4L26.8-11.4Q27.7-13.9 29.55-17.93 31.4-21.95 32.95-24.35L32.95-24.35Q36.15-29.4 39.55-29.4L39.55-29.4Q40.15-29.4 40.8-29.25L40.8-29.25 41.8-28.9Q43.25-28.05 43.25-26.73 43.25-25.4 42.45-23.85L42.45-23.85Q41.15-21.2 36.85-17.18 32.55-13.15 28.5-10.35L28.5-10.35Q27.5-8.55 26.95-5.65L26.95-5.65Q28.8-8.4 31.77-10.95 34.75-13.5 37.5-13.5ZM35.9-18L35.9-18Q41.85-24 41.85-26.9L41.85-26.9Q41.85-28.1 40.95-28.1L40.95-28.1Q40.25-28.1 39.05-27.2L39.05-27.2Q33.9-23.25 29.05-12.35L29.05-12.35Q32.45-14.6 35.9-18ZM49.6 1.25L49.6 1.25Q47.05 1.25 47.05-1.83 47.05-4.9 51.45-9.4L51.45-9.4Q51.8-9.75 51.95-9.95L51.95-9.95 52.3-10.45Q53-11.4 52.95-11.65L52.95-11.65 52.8-12.1Q52.6-12.7 51.15-12.98 49.7-13.25 48.8-13.25L48.8-13.25Q44.3-6.9 43.6-6 42.9-5.1 42.65-5.25 42.4-5.4 42.4-5.6 42.4-5.8 42.7-6.2L42.7-6.2Q45.4-9.5 47.35-13.25L47.35-13.25Q46.75-13.35 46.45-13.68 46.15-14 46.4-14.78 46.65-15.55 47.92-16.85 49.2-18.15 50.15-18.6 51.1-19.05 51.35-19.15 51.6-19.25 51.9-19.25L51.9-19.25Q52.5-19.25 51.5-17.45L51.5-17.45 49.55-14.35Q51.8-14.2 53.4-14.2L53.4-14.2 55.15-14.25Q56-14.25 56.4-14.03 56.8-13.8 56.6-13.25L56.6-13.25Q56.25-12.3 54.85-10.7L54.85-10.7Q51.85-7.2 50.35-3.25L50.35-3.25Q50-2.3 50-1.6L50-1.6Q50-0.15 51.05-0.15L51.05-0.15Q51.4-0.15 52.37-0.7 53.35-1.25 55.65-3.33 57.95-5.4 59.35-7.4L59.35-7.4Q59.55-7.65 59.82-7.53 60.1-7.4 60.1-7.28 60.1-7.15 60-7L60-7Q59.25-5.65 57.3-3.55 55.35-1.45 53.5-0.15L53.5-0.15Q51.7 1.25 49.6 1.25ZM57.39 19.05L57.39 19.05Q56.99 19.05 56.39 18.9L56.39 18.9Q53.84 18.25 53.84 16.23 53.84 14.2 56.47 11.15 59.09 8.1 67.54 2.5L67.54 2.5Q72.24-7.1 73.49-10.95L73.49-10.95Q72.89-10.25 71.14-7.93 69.39-5.6 68.04-3.98 66.69-2.35 64.79-0.9 62.89 0.55 61.29 0.55 59.69 0.55 58.82-0.18 57.94-0.9 57.84-1.7 57.74-2.5 57.74-3.05L57.74-3.05Q57.74-4.9 58.74-6.75L58.74-6.75Q60.24-9.8 62.79-12L62.79-12Q63.74-12.9 64.47-12.9 65.19-12.9 65.79-12.45L65.79-12.45Q66.44-11.75 66.19-11.25L66.19-11.25Q64.29-10.15 61.84-7L61.84-7Q60.54-5.3 60.04-2.7L60.04-2.7Q59.99-2.35 59.99-1.83 59.99-1.3 60.42-0.98 60.84-0.65 61.29-0.65L61.29-0.65Q62.84-0.65 64.54-2.3 66.24-3.95 67.79-5.78 69.34-7.6 71.32-10.15 73.29-12.7 73.92-13.5 74.54-14.3 75.19-14.3L75.19-14.3Q75.99-14.3 76.84-13.85 77.69-13.4 77.57-13.15 77.44-12.9 75.02-7.48 72.59-2.05 71.49 0.3L71.49 0.3Q72.69-0.35 75.57-2.78 78.44-5.2 80.44-7.7L80.44-7.7Q80.94-8.3 81.09-7.8L81.09-7.8Q81.14-7.7 81.14-7.48 81.14-7.25 80.84-6.85L80.84-6.85Q79.29-4.8 75.89-1.7 72.49 1.4 70.49 2.5L70.49 2.5Q66.24 11.25 64.79 13.5L64.79 13.5Q61.04 19.05 57.39 19.05ZM66.59 4.4L66.59 4.4Q60.59 8.9 58.02 11.5 55.44 14.1 55.44 15.98 55.44 17.85 56.74 17.85L56.74 17.85Q57.74 17.85 59.04 16.82 60.34 15.8 61.54 14.1 62.74 12.4 63.37 11.18 63.99 9.95 65.09 7.58 66.19 5.2 66.59 4.4ZM86.89-13.95L87.54-14Q91.39-14.35 92.22-14.35 93.04-14.35 93.04-14.1L93.04-14.1Q93.04-13.8 91.87-13.48 90.69-13.15 86.14-12.65L86.14-12.65Q85.89-12.2 85.54-11.6L85.54-11.6Q84.79-10.4 84.74-10.15L84.74-10.15Q81.89-4.45 81.74-2.9L81.74-2.9Q81.69-2.45 81.69-1.75 81.69-1.05 82.09-0.6L82.09-0.6Q82.79 0.2 84.09-0.5 85.39-1.2 87.72-3.3 90.04-5.4 91.49-7.4L91.49-7.4Q91.69-7.65 91.99-7.5L91.99-7.5Q92.74-7.15 89.39-3.55L89.39-3.55Q86.19-0.1 84.04 0.7L84.04 0.7Q82.79 1.15 81.94 1.15L81.94 1.15Q79.94 1.15 79.29-0.75L79.29-0.75Q79.19-1.1 79.19-1.6L79.19-1.6Q79.19-3.35 80.79-6.9L80.79-6.9Q80.54-6.35 78.84-4.4L78.84-4.4Q78.39-3.9 78.14-4.4L78.14-4.4Q78.09-4.5 78.09-4.67 78.09-4.85 78.29-5.1L78.29-5.1Q80.74-8.15 82.14-10.25L82.14-10.25Q82.14-10.3 83.24-12.35L83.24-12.35Q82.74-12.25 82.22-12.25 81.69-12.25 81.44-12.58 81.19-12.9 81.39-13.35L81.39-13.35Q81.74-14.15 84.04-14.25L84.04-14.25Q84.09-14.35 84.24-14.35L84.24-14.35 86.74-19Q86.94-19.4 87.19-19.83 87.44-20.25 87.57-20.48 87.69-20.7 87.84-20.95 87.99-21.2 88.09-21.3 88.19-21.4 88.29-21.5L88.29-21.5Q88.49-21.8 89.47-21.8 90.44-21.8 90.79-21.25L90.79-21.25Q90.94-21.05 90.94-20.58 90.94-20.1 90.59-19.53 90.24-18.95 89.84-18.7 89.44-18.45 89.29-18.15L89.29-18.15 86.89-13.95ZM102.39-14.55L102.39-14.55Q105.09-14.55 105.09-11.95L105.09-11.95Q105.09-10.6 104.34-9.75L104.34-9.75Q103.09-7.9 100.29-6.53 97.49-5.15 95.54-5L95.54-5Q94.84-4.95 94.79-5.4L94.79-5.4Q94.74-5.6 94.91-5.65 95.09-5.7 95.19-5.7L95.19-5.7Q96.34-5.8 98.14-6.8L98.14-6.8Q101.49-8.6 103.04-10.5L103.04-10.5Q103.69-11.4 103.69-12.23 103.69-13.05 102.89-13.05L102.89-13.05Q102.24-13.05 101.14-12.5L101.14-12.5Q98.79-11.4 96.19-8.68 93.59-5.95 92.79-3.35L92.79-3.35Q92.54-2.55 92.54-1.78 92.54-1 93.19-0.3 93.84 0.4 95.19 0.4L95.19 0.4Q96.69 0.4 98.64-0.4L98.64-0.4Q104.29-2.7 107.34-7.35L107.34-7.35Q107.64-7.75 107.89-7.5L107.89-7.5Q108.09-7.4 108.09-7.25 108.09-7.1 107.94-6.9L107.94-6.9Q106.44-4.4 104.14-2.45L104.14-2.45Q99.69 1.35 95.49 1.35L95.49 1.35Q91.89 1.35 90.44-0.8L90.44-0.8Q89.89-1.65 89.89-2.85 89.89-4.05 90.54-5.7L90.54-5.7Q91.79-8.55 95.89-11.55 99.99-14.55 102.39-14.55ZM107.29 0.5L107.29 0.5Q106.64 1.25 107.01 1.7 107.39 2.15 107.86 2.15 108.34 2.15 108.84 2L108.84 2Q110.99 1.35 113.01-0.58 115.04-2.5 115.04-4.5L115.04-4.5Q115.04-5.6 112.59-6.9L112.59-6.9Q111.44-7.5 111.29-7.6L111.29-7.6Q109.94-8.5 109.59-9.4L109.59-9.4Q108.89-8.2 107.34-5.95L107.34-5.95Q106.99-5.55 106.69-5.78 106.39-6 106.64-6.4L106.64-6.4Q108.69-9.2 109.34-11.1L109.34-11.1Q109.69-13.85 113.34-16.05 116.99-18.25 119.99-18.25L119.99-18.25Q121.89-18.25 122.66-17.57 123.44-16.9 123.44-16.25 123.44-15.6 123.06-14.75 122.69-13.9 121.54-13.15L121.54-13.15Q121.24-12.95 121.04-13.25L121.04-13.25Q120.94-13.55 121.46-14.08 121.99-14.6 122.14-15.5 122.29-16.4 121.34-16.6L121.34-16.6Q121.19-16.6 121.04-16.6L121.04-16.6Q119.09-16.6 116.16-15.15 113.24-13.7 111.59-11.4L111.59-11.4Q110.94-10.55 110.94-9.68 110.94-8.8 112.14-8.1L112.14-8.1Q112.64-7.8 113.84-7.15 115.04-6.5 115.54-6.2 116.04-5.9 116.74-5.25 117.44-4.6 117.49-4.05L117.49-4.05Q117.74-2.55 116.09-0.75L116.09-0.75Q113.74 1.85 109.09 2.9L109.09 2.9Q108.04 3.15 106.96 3.15 105.89 3.15 105.49 2.35L105.49 2.35Q105.34 2.15 105.34 1.73 105.34 1.3 106.14 0.35L106.14 0.35Q106.89-0.4 108.54-1.1L108.54-1.1Q108.69-1.15 108.79-1.05 108.89-0.95 108.84-0.8 108.79-0.65 108.31-0.45 107.84-0.25 107.29 0.5Z" opacity="1" transform="matrix(1,0,0,1,0,0)" fill="#000000" class="wordmark-text-0" data-fill-palette-color="primary" id="text-0"></path></svg></g></svg></g><g transform="matrix(1,0,0,1,0,119.20918380690878)"><svg viewBox="0 0 143.50565145599998 7.499762074812285" height="7.499762074812285" width="143.50565145599998"><g transform="matrix(1,0,0,1,0,0)"><svg width="143.50565145599998" viewBox="2.5999999046325684 -36.150001525878906 703.1100463867188 36.75" height="7.499762074812285" data-palette-color="#474141"><path d="M2.6 0L2.6-6.35 8.85-6.35 8.85 0 2.6 0ZM14 0L14-6.35 20.25-6.35 20.25 0 14 0ZM25.39 0L25.39-6.35 31.64-6.35 31.64 0 25.39 0ZM41.99 0L34.34-34.3 40.14-34.3 44.64-12.3Q44.99-10.75 45.39-7.05L45.39-7.05 45.59-7.05Q45.94-10.45 46.34-12.3L46.34-12.3 50.39-34.3 57.29-34.3 61.44-12.3Q61.74-10.65 62.14-7.05L62.14-7.05 62.34-7.05Q62.74-10.5 63.14-12.3L63.14-12.3 67.69-34.3 72.69-34.3 65.09 0 58.89 0 54.39-22.35Q53.99-24.15 53.59-27.9L53.59-27.9 53.39-27.9Q52.94-23.95 52.59-22.35L52.59-22.35 48.19 0 41.99 0ZM75.74 0L75.74-36.15 81.09-36.15 81.09-23.5 81.29-23.5Q82.29-25.05 83.87-25.98 85.44-26.9 87.49-26.9L87.49-26.9Q94.34-26.9 94.34-18.6L94.34-18.6 94.34 0 88.99 0 88.99-17.45Q88.99-19.95 88.09-21 87.19-22.05 85.44-22.05L85.44-22.05Q83.59-22.05 82.34-20.4 81.09-18.75 81.09-16.15L81.09-16.15 81.09 0 75.74 0ZM109.09 0.6Q104.04 0.6 101.49-2.75 98.94-6.1 98.94-13.15L98.94-13.15Q98.94-26.9 108.94-26.9L108.94-26.9Q113.59-26.9 115.89-23.7 118.19-20.5 118.19-13.65L118.19-13.65 118.19-11.75 104.49-11.75Q104.54-7.75 105.64-5.8 106.74-3.85 109.14-3.85L109.14-3.85Q110.84-3.85 111.86-5.28 112.89-6.7 112.89-9.2L112.89-9.2 118.19-9.2Q118.19-4.45 115.69-1.93 113.19 0.6 109.09 0.6L109.09 0.6ZM104.54-15.85L112.54-15.85Q112.54-19.05 111.64-20.75 110.74-22.45 108.94-22.45L108.94-22.45Q106.84-22.45 105.79-20.8 104.74-19.15 104.54-15.85L104.54-15.85ZM122.84 0L122.84-26.3 127.19-26.3 127.84-22.6 128.14-22.6Q129.49-26.9 132.64-26.9L132.64-26.9Q133.99-26.9 134.94-26.5L134.94-26.5 134.94-21.25 133.09-21.25Q130.89-21.25 129.54-19.83 128.19-18.4 128.19-15.15L128.19-15.15 128.19 0 122.84 0ZM147.03 0.6Q141.98 0.6 139.43-2.75 136.88-6.1 136.88-13.15L136.88-13.15Q136.88-26.9 146.88-26.9L146.88-26.9Q151.53-26.9 153.83-23.7 156.13-20.5 156.13-13.65L156.13-13.65 156.13-11.75 142.43-11.75Q142.48-7.75 143.58-5.8 144.68-3.85 147.08-3.85L147.08-3.85Q148.78-3.85 149.81-5.28 150.83-6.7 150.83-9.2L150.83-9.2 156.13-9.2Q156.13-4.45 153.63-1.93 151.13 0.6 147.03 0.6L147.03 0.6ZM142.48-15.85L150.48-15.85Q150.48-19.05 149.58-20.75 148.68-22.45 146.88-22.45L146.88-22.45Q144.78-22.45 143.73-20.8 142.68-19.15 142.48-15.85L142.48-15.85ZM172.18 0L172.18-34.3 177.88-34.3 177.88 0 172.18 0ZM183.58 0L183.58-26.3 187.93-26.3 188.48-23.1 188.78-23.1Q189.88-24.85 191.53-25.88 193.18-26.9 195.33-26.9L195.33-26.9Q202.18-26.9 202.18-18.6L202.18-18.6 202.18 0 196.83 0 196.83-17.45Q196.83-19.95 195.93-21 195.03-22.05 193.28-22.05L193.28-22.05Q191.43-22.05 190.18-20.4 188.93-18.75 188.93-16.15L188.93-16.15 188.93 0 183.58 0ZM207.87 0L207.87-26.3 212.22-26.3 212.77-23.1 213.07-23.1Q214.17-24.85 215.82-25.88 217.47-26.9 219.62-26.9L219.62-26.9Q226.47-26.9 226.47-18.6L226.47-18.6 226.47 0 221.12 0 221.12-17.45Q221.12-19.95 220.22-21 219.32-22.05 217.57-22.05L217.57-22.05Q215.72-22.05 214.47-20.4 213.22-18.75 213.22-16.15L213.22-16.15 213.22 0 207.87 0ZM241.47 0.6Q236.42 0.6 233.9-2.75 231.37-6.1 231.37-13.15L231.37-13.15Q231.37-20.2 233.9-23.55 236.42-26.9 241.47-26.9L241.47-26.9Q246.57-26.9 249.1-23.53 251.62-20.15 251.62-13.15L251.62-13.15Q251.62-6.15 249.1-2.78 246.57 0.6 241.47 0.6L241.47 0.6ZM241.47-3.95Q243.82-3.95 244.92-6 246.02-8.05 246.02-12.2L246.02-12.2 246.02-14.1Q246.02-18.25 244.92-20.3 243.82-22.35 241.47-22.35L241.47-22.35Q239.12-22.35 238.02-20.3 236.92-18.25 236.92-14.1L236.92-14.1 236.92-12.2Q236.92-8.05 238.02-6 239.12-3.95 241.47-3.95L241.47-3.95ZM261.87 0L253.92-26.3 259.62-26.3 263.07-14.3Q263.57-12.55 264.37-8.65L264.37-8.65 264.77-6.85 264.97-6.85 265.32-8.7Q265.42-9.25 265.82-11.2 266.22-13.15 266.57-14.35L266.57-14.35 269.97-26.3 275.37-26.3 267.42 0 261.87 0ZM283.37 0.6Q280.82 0.6 278.74-1.05 276.67-2.7 276.67-6.8L276.67-6.8Q276.67-11.85 280.09-13.85 283.52-15.85 289.82-15.85L289.82-15.85 289.82-18.85Q289.82-20.55 289.12-21.5 288.42-22.45 286.57-22.45L286.57-22.45Q284.77-22.45 283.94-21.5 283.12-20.55 283.12-19.2L283.12-19.2 283.12-18.5 277.87-18.5Q277.82-18.8 277.82-19.6L277.82-19.6Q277.82-23 280.22-24.95 282.62-26.9 286.57-26.9L286.57-26.9Q290.87-26.9 293.02-24.93 295.17-22.95 295.17-19.3L295.17-19.3 295.17-5.7Q295.17-4.8 295.57-4.38 295.97-3.95 296.57-3.95L296.57-3.95 297.92-3.95 297.92-0.2Q296.42 0.55 294.67 0.55L294.67 0.55Q292.97 0.55 291.79-0.38 290.62-1.3 290.17-2.85L290.17-2.85 289.92-2.85Q288.77-1.15 287.22-0.28 285.67 0.6 283.37 0.6L283.37 0.6ZM285.32-3.95Q287.42-3.95 288.62-5.6 289.82-7.25 289.82-9.95L289.82-9.95 289.82-11.75Q286.27-11.75 284.22-10.78 282.17-9.8 282.17-7.25L282.17-7.25Q282.17-3.95 285.32-3.95L285.32-3.95ZM307.16 0.55Q304.11 0.55 302.79-1.35 301.46-3.25 301.46-6.15L301.46-6.15 301.46-21.75 298.96-21.75 298.96-26.3 301.46-26.3 302.36-33.65 306.81-33.65 306.81-26.3 310.51-26.3 310.51-21.75 306.81-21.75 306.81-6.2Q306.81-3.95 309.01-3.95L309.01-3.95 310.51-3.95 310.51-0.05Q309.86 0.2 308.91 0.38 307.96 0.55 307.16 0.55L307.16 0.55ZM314.36 0L314.36-26.3 319.71-26.3 319.71 0 314.36 0ZM314.26-30.75L314.26-36.15 319.71-36.15 319.71-30.75 314.26-30.75ZM334.86 0.6Q329.81 0.6 327.28-2.75 324.76-6.1 324.76-13.15L324.76-13.15Q324.76-20.2 327.28-23.55 329.81-26.9 334.86-26.9L334.86-26.9Q339.96-26.9 342.48-23.53 345.01-20.15 345.01-13.15L345.01-13.15Q345.01-6.15 342.48-2.78 339.96 0.6 334.86 0.6L334.86 0.6ZM334.86-3.95Q337.21-3.95 338.31-6 339.41-8.05 339.41-12.2L339.41-12.2 339.41-14.1Q339.41-18.25 338.31-20.3 337.21-22.35 334.86-22.35L334.86-22.35Q332.51-22.35 331.41-20.3 330.31-18.25 330.31-14.1L330.31-14.1 330.31-12.2Q330.31-8.05 331.41-6 332.51-3.95 334.86-3.95L334.86-3.95ZM349.86 0L349.86-26.3 354.21-26.3 354.76-23.1 355.06-23.1Q356.16-24.85 357.81-25.88 359.46-26.9 361.61-26.9L361.61-26.9Q368.46-26.9 368.46-18.6L368.46-18.6 368.46 0 363.11 0 363.11-17.45Q363.11-19.95 362.21-21 361.31-22.05 359.56-22.05L359.56-22.05Q357.71-22.05 356.46-20.4 355.21-18.75 355.21-16.15L355.21-16.15 355.21 0 349.86 0ZM385.85 0L385.85-34.3 391.6-34.3 391.6-16.55 404.55-34.3 410.9-34.3 400.7-20.4 411.25 0 404.8 0 397-15.8 391.6-9.4 391.6 0 385.85 0ZM414.4 0L414.4-26.3 418.75-26.3 419.3-23.1 419.6-23.1Q420.7-24.85 422.35-25.88 424-26.9 426.15-26.9L426.15-26.9Q433-26.9 433-18.6L433-18.6 433 0 427.65 0 427.65-17.45Q427.65-19.95 426.75-21 425.85-22.05 424.1-22.05L424.1-22.05Q422.25-22.05 421-20.4 419.75-18.75 419.75-16.15L419.75-16.15 419.75 0 414.4 0ZM448 0.6Q442.95 0.6 440.42-2.75 437.9-6.1 437.9-13.15L437.9-13.15Q437.9-20.2 440.42-23.55 442.95-26.9 448-26.9L448-26.9Q453.1-26.9 455.62-23.53 458.15-20.15 458.15-13.15L458.15-13.15Q458.15-6.15 455.62-2.78 453.1 0.6 448 0.6L448 0.6ZM448-3.95Q450.35-3.95 451.45-6 452.55-8.05 452.55-12.2L452.55-12.2 452.55-14.1Q452.55-18.25 451.45-20.3 450.35-22.35 448-22.35L448-22.35Q445.65-22.35 444.55-20.3 443.45-18.25 443.45-14.1L443.45-14.1 443.45-12.2Q443.45-8.05 444.55-6 445.65-3.95 448-3.95L448-3.95ZM466.64 0L460.19-26.3 465.69-26.3 468.44-14.15Q469.09-11.2 469.49-6.55L469.49-6.55 469.69-6.55Q470.09-10.85 470.69-14.1L470.69-14.1 473.09-26.3 478.64-26.3 481.04-14.05Q481.54-11.65 482.04-6.55L482.04-6.55 482.24-6.55Q482.89-11.25 483.49-14.05L483.49-14.05 486.14-26.3 491.19-26.3 484.79 0 479.24 0 476.59-13.4Q476.09-15.9 475.79-19.75L475.79-19.75 475.54-19.75Q475.24-16 474.79-13.4L474.79-13.4 472.19 0 466.64 0ZM502.04 0.6Q497.64 0.6 495.27-1.65 492.89-3.9 492.89-7.55L492.89-7.55Q492.89-7.95 492.92-8.1 492.94-8.25 492.94-8.3L492.94-8.3 498.44-8.3 498.44-7.9Q498.44-5.85 499.54-4.85 500.64-3.85 502.24-3.85L502.24-3.85Q503.74-3.85 504.84-4.67 505.94-5.5 505.94-7.05L505.94-7.05Q505.94-8.75 504.69-9.58 503.44-10.4 500.84-11.15L500.84-11.15Q498.44-11.9 496.94-12.63 495.44-13.35 494.39-14.9 493.34-16.45 493.34-19.05L493.34-19.05Q493.34-22.8 495.84-24.85 498.34-26.9 502.34-26.9L502.34-26.9Q506.09-26.9 508.44-24.93 510.79-22.95 510.79-19.75L510.79-19.75 510.74-18.65 505.29-18.65 505.29-18.85Q505.19-22.45 502.09-22.45L502.09-22.45Q500.54-22.45 499.69-21.6 498.84-20.75 498.84-19.5L498.84-19.5Q498.84-18 499.99-17.3 501.14-16.6 503.59-15.9L503.59-15.9Q506.04-15.2 507.59-14.48 509.14-13.75 510.27-12.13 511.39-10.5 511.39-7.75L511.39-7.75Q511.39-3.4 508.87-1.4 506.34 0.6 502.04 0.6L502.04 0.6ZM527.78 0L527.78-34.3 532.84-34.3 544.13-14.5Q544.74-13.55 545.88-10.8L545.88-10.8 546.03-10.95 545.99-14.35 545.99-34.3 551.09-34.3 551.09 0 546.09 0 534.68-19.9Q534.18-20.8 532.93-23.6L532.93-23.6 532.74-23.45Q532.88-21.05 532.88-20.05L532.88-20.05 532.88 0 527.78 0ZM566.38 0.6Q561.33 0.6 558.81-2.75 556.28-6.1 556.28-13.15L556.28-13.15Q556.28-20.2 558.81-23.55 561.33-26.9 566.38-26.9L566.38-26.9Q571.48-26.9 574.01-23.53 576.53-20.15 576.53-13.15L576.53-13.15Q576.53-6.15 574.01-2.78 571.48 0.6 566.38 0.6L566.38 0.6ZM566.38-3.95Q568.73-3.95 569.83-6 570.93-8.05 570.93-12.2L570.93-12.2 570.93-14.1Q570.93-18.25 569.83-20.3 568.73-22.35 566.38-22.35L566.38-22.35Q564.03-22.35 562.93-20.3 561.83-18.25 561.83-14.1L561.83-14.1 561.83-12.2Q561.83-8.05 562.93-6 564.03-3.95 566.38-3.95L566.38-3.95ZM593.08 0L593.08-34.3 598.83-34.3 598.83-5.3 613.13-5.3 613.13 0 593.08 0ZM617.27 0L617.27-26.3 622.62-26.3 622.62 0 617.27 0ZM617.17-30.75L617.17-36.15 622.62-36.15 622.62-30.75 617.17-30.75ZM628.47 0L628.47-26.3 632.82-26.3 633.37-23.1 633.67-23.1Q634.67-24.85 636.27-25.88 637.87-26.9 639.87-26.9L639.87-26.9Q644.07-26.9 645.47-23.05L645.47-23.05Q646.57-24.8 648.32-25.85 650.07-26.9 652.17-26.9L652.17-26.9Q658.57-26.9 658.57-18.6L658.57-18.6 658.57 0 653.22 0 653.22-17.45Q653.22-19.95 652.42-21 651.62-22.05 650.07-22.05L650.07-22.05Q648.42-22.05 647.3-20.5 646.17-18.95 646.17-16.4L646.17-16.4 646.17 0 640.87 0 640.87-17.45Q640.87-19.95 640.07-21 639.27-22.05 637.72-22.05L637.72-22.05Q636.02-22.05 634.92-20.43 633.82-18.8 633.82-16.15L633.82-16.15 633.82 0 628.47 0ZM664.32 0L664.32-26.3 669.67-26.3 669.67 0 664.32 0ZM664.22-30.75L664.22-36.15 669.67-36.15 669.67-30.75 664.22-30.75ZM681.42 0.55Q678.37 0.55 677.04-1.35 675.72-3.25 675.72-6.15L675.72-6.15 675.72-21.75 673.22-21.75 673.22-26.3 675.72-26.3 676.62-33.65 681.07-33.65 681.07-26.3 684.77-26.3 684.77-21.75 681.07-21.75 681.07-6.2Q681.07-3.95 683.27-3.95L683.27-3.95 684.77-3.95 684.77-0.05Q684.12 0.2 683.17 0.38 682.22 0.55 681.42 0.55L681.42 0.55ZM696.36 0.6Q691.96 0.6 689.59-1.65 687.21-3.9 687.21-7.55L687.21-7.55Q687.21-7.95 687.24-8.1 687.26-8.25 687.26-8.3L687.26-8.3 692.76-8.3 692.76-7.9Q692.76-5.85 693.86-4.85 694.96-3.85 696.56-3.85L696.56-3.85Q698.06-3.85 699.16-4.67 700.26-5.5 700.26-7.05L700.26-7.05Q700.26-8.75 699.01-9.58 697.76-10.4 695.16-11.15L695.16-11.15Q692.76-11.9 691.26-12.63 689.76-13.35 688.71-14.9 687.66-16.45 687.66-19.05L687.66-19.05Q687.66-22.8 690.16-24.85 692.66-26.9 696.66-26.9L696.66-26.9Q700.41-26.9 702.76-24.93 705.11-22.95 705.11-19.75L705.11-19.75 705.06-18.65 699.61-18.65 699.61-18.85Q699.51-22.45 696.41-22.45L696.41-22.45Q694.86-22.45 694.01-21.6 693.16-20.75 693.16-19.5L693.16-19.5Q693.16-18 694.31-17.3 695.46-16.6 697.91-15.9L697.91-15.9Q700.36-15.2 701.91-14.48 703.46-13.75 704.59-12.13 705.71-10.5 705.71-7.75L705.71-7.75Q705.71-3.4 703.19-1.4 700.66 0.6 696.36 0.6L696.36 0.6Z" opacity="1" transform="matrix(1,0,0,1,0,0)" fill="#000000" class="slogan-text-1" data-fill-palette-color="secondary" id="text-1"></path></svg></g></svg></g></svg></g></svg></g></svg></g></svg></g></svg></g><g><path d="M0 123.6c0-68.262 55.338-123.6 123.6-123.6 40.177 0 75.877 19.17 98.452 48.862l-5.521 0c-21.858-27.145-55.366-44.513-92.931-44.513-65.861 0-119.251 53.391-119.251 119.251 0 65.861 53.391 119.251 119.251 119.251 37.564 0 71.072-17.369 92.931-44.513h5.521c-22.575 29.692-58.275 48.862-98.452 48.862-68.262 0-123.6-55.338-123.6-123.6z" fill="#000000" stroke="transparent" data-fill-palette-color="tertiary"></path></g></svg></g><defs></defs></svg><rect width="395.52" height="247.2" fill="none" stroke="none" visibility="hidden"></rect></g></svg></g></svg>